<svg xmlns="http://www.w3.org/2000/svg" version="1.1" xmlns:xlink="http://www.w3.org/1999/xlink" xmlns:svgjs="http://svgjs.dev/svgjs" width="2000" height="443" viewBox="0 0 2000 443"><g transform="matrix(1,0,0,1,-0.061066971319519325,-1.4738827868851558)"><svg viewBox="0 0 275 61" data-background-color="#d0def9" preserveAspectRatio="xMidYMid meet" height="443" width="2000" xmlns="http://www.w3.org/2000/svg" xmlns:xlink="http://www.w3.org/1999/xlink"><g id="tight-bounds" transform="matrix(1,0,0,1,0.008396708556432486,0.20294999999998709)"><svg viewBox="0 0 274.98320658288714 60.5941" height="60.5941" width="274.98320658288714"><g><svg viewBox="0 0 274.98320658288714 60.5941" height="60.5941" width="274.98320658288714"><g><svg viewBox="0 0 274.98320658288714 60.5941" height="60.5941" width="274.98320658288714"><g id="textblocktransform"><svg viewBox="0 0 274.98320658288714 60.5941" height="60.5941" width="274.98320658288714" id="textblock"><g><svg viewBox="0 0 274.98320658288714 60.5941" height="60.5941" width="274.98320658288714"><g><svg><g></g><g></g></svg></g><g><svg><g></g><g><svg></svg></g></svg></g><g id="text-0"><svg viewBox="0 0 274.98320658288714 60.5941" height="60.5941" width="274.98320658288714"><g transform="matrix(1,0,0,1,0,12.647049999999997)"><svg width="79.30000000000001" viewBox="3.85 -34.85 79.29 35.300000000000004" height="35.300000000000004" data-palette-color="#ff511a"><path d="M26.15-34.85L30.7-34.85 30.7 0 26.15 0 26.15-15.8 8.4-15.8 8.4 0 3.85 0 3.85-34.85 8.4-34.85 8.4-19.55 26.15-19.55 26.15-34.85ZM50.4 0.45Q46.55 0.45 43.42-1.3 40.3-3.05 38.52-6.28 36.75-9.5 36.75-13.75L36.75-13.75Q36.75-17.95 38.57-21.18 40.4-24.4 43.55-26.13 46.7-27.85 50.6-27.85L50.6-27.85Q54.5-27.85 57.65-26.13 60.8-24.4 62.62-21.2 64.45-18 64.45-13.75L64.45-13.75Q64.45-9.5 62.57-6.28 60.7-3.05 57.5-1.3 54.3 0.45 50.4 0.45L50.4 0.45ZM50.4-3.55Q52.85-3.55 55-4.7 57.15-5.85 58.47-8.15 59.8-10.45 59.8-13.75L59.8-13.75Q59.8-17.05 58.5-19.35 57.2-21.65 55.1-22.78 53-23.9 50.55-23.9L50.55-23.9Q48.05-23.9 45.97-22.78 43.9-21.65 42.65-19.35 41.4-17.05 41.4-13.75L41.4-13.75Q41.4-10.4 42.62-8.1 43.85-5.8 45.9-4.67 47.95-3.55 50.4-3.55L50.4-3.55ZM83.14-23.65L76-23.65 76-7.5Q76-5.5 76.84-4.67 77.69-3.85 79.8-3.85L79.8-3.85 83.14-3.85 83.14 0 79.05 0Q75.25 0 73.34-1.75 71.44-3.5 71.44-7.5L71.44-7.5 71.44-23.65 67.89-23.65 67.89-27.4 71.44-27.4 71.44-34.3 76-34.3 76-27.4 83.14-27.4 83.14-23.65Z" opacity="1" transform="matrix(1,0,0,1,0,0)" fill="#ff511a" class="undefined-yy-0"></path></svg></g><g><svg xmlns="http://www.w3.org/2000/svg" xmlns:xlink="http://www.w3.org/1999/xlink" xmlns:a="http://ns.adobe.com/AdobeSVGViewerExtensions/3.0/" version="1.1" x="93.60590000000002" y="0" viewBox="-0.00027883667103682785 -0.00003826701207665373 58.129016780597375 93.2524301941409" enable-background="new -20.933 -3.502 100 100" xml:space="preserve" height="60.5941" width="37.771406582887124" class="icon-cg-0" data-fill-palette-color="accent" id="cg-0"><path d="M5.201 14.579c20.544 38.152-1.136 45.173 6.086 75.328 1.002 4.184-2.553 4.016-3.86 1.829-18.84-31.504 5.152-44.721-3.421-76.239C3.281 12.834 3.841 12.053 5.201 14.579z" fill="#ff511a" data-fill-palette-color="accent"></path><path d="M27.813 1.538C48.359 39.69 26.678 46.712 33.9 76.866c1.001 4.183-2.554 4.017-3.862 1.828-18.839-31.503 5.153-44.719-3.42-76.239C25.894-0.206 26.454-0.988 27.813 1.538z" fill="#ff511a" data-fill-palette-color="accent"></path><path d="M49.021 14.579c20.545 38.152-1.136 45.174 6.087 75.329 1 4.183-2.555 4.016-3.862 1.828-18.839-31.503 5.152-44.72-3.42-76.238C47.101 12.834 47.66 12.054 49.021 14.579z" fill="#ff511a" data-fill-palette-color="accent"></path></svg></g><g transform="matrix(1,0,0,1,145.68320658288715,9.422049999999999)"><svg width="129.3" viewBox="3.85 -37 129.29 37.45" height="37.45" data-palette-color="#ff511a"><path d="M14.7-34.85Q20.4-34.85 24.58-32.73 28.75-30.6 30.98-26.65 33.2-22.7 33.2-17.35L33.2-17.35Q33.2-12 30.98-8.08 28.75-4.15 24.58-2.08 20.4 0 14.7 0L14.7 0 3.85 0 3.85-34.85 14.7-34.85ZM14.7-3.75Q21.45-3.75 25-7.33 28.55-10.9 28.55-17.35L28.55-17.35Q28.55-23.85 24.98-27.5 21.4-31.15 14.7-31.15L14.7-31.15 8.4-31.15 8.4-3.75 14.7-3.75ZM64.2-14.75Q64.2-13.45 64.05-12L64.05-12 42.15-12Q42.4-7.95 44.92-5.68 47.45-3.4 51.05-3.4L51.05-3.4Q54-3.4 55.97-4.78 57.95-6.15 58.75-8.45L58.75-8.45 63.65-8.45Q62.55-4.5 59.25-2.02 55.95 0.45 51.05 0.45L51.05 0.45Q47.15 0.45 44.07-1.3 41-3.05 39.25-6.28 37.5-9.5 37.5-13.75L37.5-13.75Q37.5-18 39.2-21.2 40.9-24.4 43.97-26.13 47.05-27.85 51.05-27.85L51.05-27.85Q54.95-27.85 57.95-26.15 60.95-24.45 62.57-21.48 64.2-18.5 64.2-14.75L64.2-14.75ZM59.5-15.7Q59.5-18.3 58.35-20.18 57.2-22.05 55.22-23.03 53.25-24 50.85-24L50.85-24Q47.4-24 44.97-21.8 42.55-19.6 42.2-15.7L42.2-15.7 59.5-15.7ZM68.5-13.8Q68.5-18 70.19-21.18 71.89-24.35 74.87-26.1 77.84-27.85 81.5-27.85L81.5-27.85Q85.09-27.85 87.75-26.3 90.39-24.75 91.69-22.4L91.69-22.4 91.69-27.4 96.3-27.4 96.3 0 91.69 0 91.69-5.1Q90.34-2.7 87.67-1.13 85 0.45 81.44 0.45L81.44 0.45Q77.8 0.45 74.84-1.35 71.89-3.15 70.19-6.4 68.5-9.65 68.5-13.8L68.5-13.8ZM91.69-13.75Q91.69-16.85 90.44-19.15 89.19-21.45 87.07-22.68 84.94-23.9 82.39-23.9L82.39-23.9Q79.84-23.9 77.75-22.7 75.64-21.5 74.39-19.2 73.14-16.9 73.14-13.8L73.14-13.8Q73.14-10.65 74.39-8.33 75.64-6 77.75-4.78 79.84-3.55 82.39-3.55L82.39-3.55Q84.94-3.55 87.07-4.78 89.19-6 90.44-8.33 91.69-10.65 91.69-13.75L91.69-13.75ZM103.99-37L108.54-37 108.54 0 103.99 0 103.99-37ZM133.04-23.7L119.69-3.75 133.14-3.75 133.14 0 114.49 0 114.49-3.75 127.79-23.7 114.59-23.7 114.59-27.4 133.04-27.4 133.04-23.7Z" opacity="1" transform="matrix(1,0,0,1,0,0)" fill="#ff511a" class="undefined-yy-1"></path></svg></g></svg></g></svg></g></svg></g></svg></g></svg></g><defs></defs></svg><rect width="274.98320658288714" height="60.5941" fill="none" stroke="none" visibility="hidden"></rect></g></svg></g></svg>